<?xml version="1.0" encoding="utf-8"?>
<!DOCTYPE svg PUBLIC "-//W3C//DTD SVG 1.0//EN" "http://www.w3.org/TR/2001/REC-SVG-20010904/DTD/svg10.dtd">
<svg version="1.0" xmlns="http://www.w3.org/2000/svg" width="1920px" height="485px" viewBox="0 0 1920 485" preserveAspectRatio="xMidYMid meet">
 <g fill="#111111">
  <path d="M364.4 483.9 c-51.4 -2.8 -93.4 -13.4 -134.4 -33.9 -30.9 -15.6 -47.4 -34.4 -52.6 -60.3 -3.1 -16 -2.8 -46 0.9 -69.7 1.1 -6.9 1.2 -5.8 1.2 15 0 38 5 57.6 20 77.8 11.2 15.3 24.5 25.5 47.8 36.7 37.9 18.2 72.5 27.3 126.7 33.5 16.5 1.9 13.3 2.2 -9.6 0.9z"/>
  <path d="M408.6 480.5 c1.9 -4.6 3.4 -21.4 3.4 -38.2 0 -40.2 -7.3 -120.4 -11.5 -126.9 -0.8 -1.2 -5.6 -5.3 -10.7 -9.1 -12.2 -9.1 -79.9 -57.7 -82.2 -59 -1.6 -0.9 -1.6 -1.1 -0.2 -1.6 0.8 -0.3 6.2 -1.2 11.9 -1.8 20.1 -2.3 43.8 2 63.2 11.5 14.2 7 20.1 11.4 44.5 33.1 11.1 9.9 20.5 18.1 20.9 18.3 1 0.3 -0.5 -19 -2.4 -29.9 -3.3 -19.7 -10.4 -40.3 -19.2 -55.4 -12.9 -22.4 -37 -46.2 -58.5 -58 -3.8 -2 -6.8 -3.9 -6.8 -4.1 0 -0.9 19 9.1 26.5 14 21.6 14.1 41.8 35.3 51.2 53.9 6 12 11.2 30.5 16.3 58.5 5.6 30.1 6.8 49.1 7.6 120.7 0.6 57.2 0.5 58 -1.5 61.2 -1.1 1.8 -3.1 3.9 -4.4 4.8 -1.3 0.8 -13 3.7 -25.9 6.4 l-23.6 4.8 1.4 -3.2z"/>
  <path d="M125 458.5 c0 -22.2 -1 -34.5 -5 -66 -4.8 -37.1 -6 -52.4 -6.6 -81 -0.6 -24.8 -0.4 -27.8 1.5 -37.1 5.9 -28.7 17.9 -51.8 37.1 -71.8 17.7 -18.3 40.3 -32.8 63.8 -41 5.7 -2 10.9 -3.6 11.5 -3.6 0.6 0 -2.8 2 -7.6 4.4 -30.4 15.5 -61.3 47.9 -77.2 81.1 -6.7 13.8 -10.8 26.2 -13.6 40.7 -2.6 13.9 -2.4 26.8 1.7 82.3 1.7 24 2.7 45.6 2.8 61.5 0 23.5 -0.1 24.9 -2.6 34.2 -1.4 5.3 -3.3 10.9 -4.2 12.5 -1.4 2.6 -1.5 1.5 -1.6 -16.2z"/>
  <path d="M78.8 444.1 c-13 -7.3 -21.3 -13.5 -30.9 -23.1 -9.2 -9.3 -20 -24.6 -24.8 -35.2 -7.8 -17.2 -16.1 -46.4 -19.8 -69.8 -2.6 -16.4 -2.6 -63.6 0 -79.5 8.2 -51.1 27.9 -95.9 58.8 -134.2 8.5 -10.5 30.4 -32.3 40.9 -40.7 39 -31.1 82.5 -50.1 133.5 -58.3 14.1 -2.3 62 -2.5 76 -0.5 52.6 7.9 99.3 28.1 138 59.7 17.3 14.1 42.2 41.2 54.3 59.2 2.3 3.4 4.2 6.3 4.2 6.5 0 0.2 -4.4 0 -9.7 -0.5 -13.4 -1.2 -55.8 -0.1 -72.3 1.8 -15.5 1.9 -34.7 5.5 -44 8.4 -3.5 1.1 -6.5 1.9 -6.6 1.8 -0.6 -0.6 33.3 -17.6 46.1 -23.3 7.6 -3.3 14 -6.5 14.2 -7 0.2 -0.9 -15.4 -13 -26.2 -20.1 -20.6 -13.7 -49.8 -26.5 -75.6 -33.2 -17.9 -4.6 -28.1 -5.6 -55.9 -5.6 -29.5 0 -36.8 1 -62 8.1 -80.2 22.8 -143.9 83.1 -169.8 160.9 -8.6 25.6 -12.3 49.3 -12.2 78 0 29.3 2.9 49 11 74 5.4 16.7 11.4 29.1 18.7 39.1 5.8 7.8 19.5 21.4 21.6 21.4 0.6 0 6.2 -3.9 12.6 -8.6 6.4 -4.8 10.4 -7.4 9 -5.8 -4.2 4.7 -11.3 15.3 -15.9 23.7 -2.3 4.2 -4.3 7.7 -4.3 7.7 -0.1 0 -4.1 -2.2 -8.9 -4.9z"/>
  <path d="M878.3 444.1 c-10.2 -2.9 -17.3 -7.1 -24.8 -14.6 -8 -8 -12.8 -16.6 -15 -27.2 -6.3 -29.8 9.3 -57 38.5 -66.9 8.3 -2.8 25.3 -2.6 34 0.4 13.2 4.5 22.3 11.4 29.3 22 6 9 8.8 17.6 9.4 28.7 1.5 27.6 -15.6 51 -42.2 58 -7.8 2 -21.4 1.8 -29.2 -0.4z m29.1 -24.4 c6.8 -3.1 12.2 -8.6 15.5 -15.6 2.2 -4.7 2.6 -7 2.6 -14.6 0 -7.8 -0.4 -9.7 -2.8 -14.7 -5.6 -11.4 -16.4 -18 -29.2 -18 -12.8 0 -23.6 6.6 -29.2 18 -2.4 5 -2.8 6.8 -2.8 14.7 0 7.6 0.4 9.9 2.6 14.5 7.8 16.4 26.8 23.2 43.3 15.7z"/>
  <path d="M1012.2 444 c-24.7 -6.5 -40.5 -25.8 -41.9 -51 -1.5 -28 15.3 -51.1 42.3 -58 14.1 -3.6 29.5 -1.8 42.7 5.2 5.5 2.9 18.7 14.6 18.7 16.6 0 0.4 -4.5 3.4 -10 6.5 l-10 5.7 -3.4 -3.3 c-12.5 -12.6 -35.7 -12 -47.8 1.1 -6.4 7 -8.3 12.2 -8.3 22.7 0 11.4 2.5 17.5 9.9 24.3 14.4 13.1 40.4 11.6 50 -2.9 1.4 -2.1 2.6 -4.3 2.6 -4.9 0 -0.6 -5.3 -1 -14.5 -1 l-14.5 0 0 -10.5 0 -10.5 27 0 27 0 0 8.8 c0 16.5 -5.1 29.3 -15.4 39 -7.1 6.6 -14.3 10.4 -23.8 12.7 -8.7 2 -21.7 1.8 -30.6 -0.5z"/>
  <path d="M1740.6 444.4 c-18.7 -4.5 -34.5 -19.8 -40.2 -38.9 -2.7 -9.2 -2.5 -24 0.5 -33.3 7.3 -22.4 26.8 -37.4 50.6 -38.9 26.9 -1.7 51.1 15.7 58 41.7 1.9 7.2 1.9 21.7 -0.1 29.3 -5 19.5 -20.9 35.1 -40.9 40.2 -7.3 1.8 -20 1.8 -27.9 -0.1z m29.2 -25.5 c17.6 -8.6 22.9 -32.9 10.9 -49.7 -10.7 -14.8 -33.6 -16.9 -48 -4.3 -4.5 4 -9.4 13.8 -10.2 20.6 -0.7 6.1 0.8 14.5 3.6 20 8.1 15.7 27.1 21.6 43.7 13.4z"/>
  <path d="M635.5 389.5 l0 -54.5 22.5 0 c25.3 0 31.1 0.9 39.3 6.2 11.1 7.1 16.9 17.6 16.9 30.8 0 11.7 -4.5 21.9 -12.5 28.3 -8.5 6.9 -14.7 8.8 -30.2 9.1 l-11 0.2 -0.3 17.2 -0.2 17.2 -12.3 0 -12.2 0 0 -54.5z m47.1 -4.1 c6.7 -3.2 9.6 -13.3 5.9 -20.5 -2.9 -5.4 -6.7 -6.9 -18.2 -6.9 l-10.3 0 0 14.5 0 14.5 9.6 0 c6.7 0 10.6 -0.5 13 -1.6z"/>
  <path d="M737.5 389.4 l0 -54.5 26 0.3 c25.8 0.3 26 0.3 31.7 3 7.9 3.7 12 7 16.2 13.1 4.7 7 7 15.3 6.3 23.3 -0.8 10.8 -7.8 22.4 -16.1 26.9 -2 1.1 -3.6 2.3 -3.6 2.7 0 0.4 1.3 2.9 2.9 5.5 1.6 2.7 6.8 11.5 11.5 19.6 l8.5 14.8 -13.1 -0.3 -13.2 -0.3 -10.1 -17.5 -10.1 -17.5 -6.2 -0.3 -6.2 -0.3 0 18.1 0 18 -12.2 0 -12.3 0 0 -54.6z m51.1 -5.4 c5.5 -5.1 6.7 -11.7 3.4 -18.5 -3.1 -6.4 -5.9 -7.5 -18.9 -7.5 l-11.1 0 0 14.6 0 14.6 11.9 -0.4 c11.1 -0.3 12.1 -0.5 14.7 -2.8z"/>
  <path d="M1106.8 389.5 l0.2 -54.5 23.3 0 c12.7 0 25.1 0.5 27.5 1 11.4 2.7 20.4 9.7 25.4 19.8 3 6.1 3.3 7.4 3.3 16.2 0 8.4 -0.3 10.2 -2.8 15.2 -2.8 5.8 -12.5 15.8 -15.3 15.8 -0.8 0 -1.4 0.3 -1.4 0.8 0 0.4 5.2 9.5 11.4 20.2 l11.4 19.5 -12.6 0.3 c-10.9 0.2 -12.8 0 -13.9 -1.4 -0.7 -0.9 -5.4 -9.1 -10.5 -18 l-9.3 -16.4 -6.2 0 -6.3 0 0 18 0 18 -12.2 0 -12.3 0 0.3 -54.5z m50.7 -5.5 c5.6 -5.2 7 -12 3.8 -18.7 -2.8 -6 -6.2 -7.3 -19 -7.3 l-11.3 0 0 14.6 0 14.6 11.9 -0.4 c11.1 -0.3 12.1 -0.5 14.6 -2.8z"/>
  <path d="M1211.4 419.8 c4.6 -13.4 12.9 -37.9 18.6 -54.5 l10.3 -30.3 15.6 0 15.6 0 12.4 36.8 c6.9 20.2 15.2 44.7 18.6 54.5 l6.2 17.7 -13.3 0 -13.3 0 -2.7 -8.5 -2.8 -8.5 -20.7 0 -20.8 0 -2.7 8.5 -2.8 8.5 -13.3 0 -13.2 0 8.3 -24.2z m57 -18 c-4.2 -13.8 -11.7 -37.4 -12 -37.7 -0.2 -0.2 -0.6 -0.2 -0.9 0.1 -0.6 0.6 -12.5 37.7 -12.5 39 0 0.4 5.9 0.8 13.1 0.8 l13 0 -0.7 -2.2z"/>
  <path d="M1328 389.5 l0 -54.5 12.4 0 12.3 0 14.9 24.4 c8.2 13.4 15.1 24.2 15.4 24 0.3 -0.3 7 -11.1 15 -24.2 l14.5 -23.7 12.3 -0.3 12.2 -0.3 0 54.6 0 54.5 -12 0 -12 0 0 -31.5 c0 -20.3 -0.4 -31.5 -1 -31.5 -0.5 0 -1 0.3 -1 0.8 0 1.7 -26.9 44.7 -28.2 44.9 -0.8 0.2 -7 -9.1 -15.2 -22.7 -7.6 -12.7 -14.2 -23 -14.5 -23 -0.4 0 -0.6 14.2 -0.6 31.5 l0 31.5 -12.2 0 -12.3 0 0 -54.5z"/>
  <path d="M1471.5 401.8 c7.9 -23.3 16.2 -47.7 18.4 -54.2 2.3 -6.6 4.1 -12.1 4.1 -12.3 0 -0.1 7.1 -0.3 15.8 -0.3 l15.7 0 18 53.1 c9.9 29.2 18.1 53.7 18.3 54.5 0.3 1.2 -1.8 1.4 -12.9 1.2 l-13.3 -0.3 -2.4 -8.2 -2.5 -8.3 -20.8 0 -20.8 0 -2.7 8.5 -2.8 8.5 -13.2 0 -13.3 0 14.4 -42.2z m51.2 1 c-0.2 -0.7 -3.1 -9.7 -6.3 -20 -3.3 -10.4 -6.2 -18.8 -6.6 -18.8 -0.7 0 -12.8 36.8 -12.8 38.9 0 0.7 4.2 1.1 13.1 1.1 10.1 0 13 -0.3 12.6 -1.2z"/>
  <path d="M1582 389.5 l0 -54.7 27.3 0.4 c26.3 0.4 27.4 0.5 33.9 2.9 17.3 6.7 28.8 19.3 33.3 36.6 1.9 7.4 1.9 22.3 0 29.8 -4.4 17 -16 29.9 -33 36.6 -5.7 2.2 -7.4 2.3 -33.7 2.7 l-27.8 0.4 0 -54.7z m52.8 30 c7.4 -2.2 13.1 -7 16.7 -14 2.5 -4.9 3.1 -7.3 3.3 -14.4 0.5 -10.7 -1.9 -17.9 -7.9 -24.1 -6.8 -7 -11.2 -8.4 -26.9 -8.4 l-13.5 -0.1 -0.3 31.3 -0.2 31.2 11.8 0 c7.7 0 13.6 -0.5 17 -1.5z"/>
  <path d="M1836 389.4 l0 -54.5 25.8 0.3 c23.9 0.3 26.1 0.5 31.4 2.6 7.5 3 14.6 9.6 18.9 17.4 3.3 6 3.4 6.7 3.4 16.8 0 9.5 -0.3 11 -2.7 15.6 -2.8 5.3 -12.9 15.4 -15.4 15.4 -0.8 0 -1.4 0.2 -1.4 0.4 0 0.3 4.7 8.7 10.5 18.7 5.9 10 11 19 11.6 20.1 0.9 1.7 0.3 1.8 -12 1.8 l-12.9 0 -10.3 -18 -10.3 -18 -6.3 0 -6.3 0 0 18 0 18 -12 0 -12 0 0 -54.6z m48.9 -4.2 c9.1 -4.9 9.6 -19.9 0.8 -25.2 -2.7 -1.7 -5.1 -2 -14.4 -2 l-11.3 0 0 14.5 0 14.5 10.8 0 c8.5 0 11.4 -0.4 14.1 -1.8z"/>
  <path d="M675.3 275.6 c-18.8 -4.6 -34.4 -20.1 -38.8 -38.7 -8.3 -35.3 18.8 -67.9 54.5 -65.6 22.5 1.4 40 14.7 47.2 35.6 3.2 9.4 3.2 24.8 -0.1 34.4 -5.9 17.3 -19.4 29.5 -37.6 34.2 -7 1.8 -18 1.8 -25.2 0.1z m22.7 -22.2 c4.1 -1.2 6.7 -2.9 11 -7.2 6.7 -6.7 9 -12.4 9 -22.2 0 -9.8 -2.3 -15.5 -9 -22.2 -4.5 -4.5 -6.9 -6 -11.5 -7.4 -15.5 -4.4 -30.8 2.2 -37.2 16.3 -3 6.6 -3.4 18.7 -0.8 24.9 6.5 15.7 21.8 22.8 38.5 17.8z"/>
  <path d="M956 276.3 c-6 -0.9 -16.9 -5.7 -22.1 -9.6 -14 -10.5 -21.3 -25.1 -21.3 -42.7 0 -28.7 21 -50.9 49.9 -52.7 15.5 -1 29.4 4.4 40.6 15.6 10.3 10.4 14.9 21.7 14.9 37.1 0 15.4 -4.6 26.7 -14.9 37.1 -12.3 12.4 -29.7 18 -47.1 15.2z m23.9 -24.8 c10.5 -5.7 15.7 -15.1 15.5 -28 -0.1 -9.8 -2.4 -15.6 -8.7 -21.9 -11.9 -11.8 -32.6 -11.3 -43.9 1.2 -13.1 14.4 -9 39.8 7.7 48.4 6.4 3.3 8.5 3.8 16.5 3.5 6.1 -0.3 8.6 -0.9 12.9 -3.2z"/>
  <path d="M1174.3 275.6 c-18.8 -4.6 -34.4 -20.1 -38.8 -38.7 -8.3 -35.3 18.8 -67.9 54.5 -65.6 22.5 1.4 40 14.7 47.2 35.6 1.8 5.2 2.3 8.8 2.3 17.1 0 12.5 -2.4 20.6 -8.7 30 -11.8 17.7 -35.4 26.7 -56.5 21.6z m22.7 -22.2 c4.1 -1.2 6.7 -2.9 11 -7.2 6.7 -6.7 9 -12.4 9 -22.2 0 -9.8 -2.3 -15.5 -9 -22.2 -4.5 -4.5 -6.9 -6 -11.5 -7.4 -11.2 -3.2 -23.4 -0.4 -31 7.1 -13.2 13.3 -11.4 37.7 3.5 48 7.8 5.4 18.1 6.8 28 3.9z"/>
  <path d="M809.5 224 l0 -51 8.5 0 8.5 0 19.5 27.5 c10.7 15.1 19.8 27.5 20.3 27.5 0.4 0 0.7 -12.4 0.7 -27.5 l0 -27.5 11.3 0 11.2 0 0 51 0 51 -8.6 0 -8.6 0 -19.4 -27.5 c-10.7 -15.1 -19.7 -27.4 -20.1 -27.5 -0.5 0 -0.8 12.4 -0.8 27.5 l0 27.5 -11.2 0 -11.3 0 0 -51z"/>
  <path d="M1044.9 224.3 l-16.5 -50.8 12 -0.3 c7.6 -0.2 12.2 0.1 12.6 0.8 0.3 0.6 5.6 17.4 11.6 37.5 6 20.1 11.2 36.5 11.5 36.5 0.3 0 5.2 -15.2 10.7 -33.7 5.6 -18.6 10.7 -35.5 11.4 -37.5 l1.1 -3.8 12.5 0 c9.5 0 12.3 0.3 11.9 1.3 -0.4 1 -16.9 51.5 -30.3 93 l-2.6 7.7 -14.7 0 -14.7 0 -16.5 -50.7z"/>
 </g>
</svg>